<svg xmlns="http://www.w3.org/2000/svg" fill="white" viewBox="0 0 64 63.96"><g id="Calque_2" data-name="Calque 2"><g id="Calque_1-2" data-name="Calque 1"><path d="M24.2.11a2.62,2.62,0,0,0-1.52,1.57c-.09.35-.16,4.54-.16,10.76v10.2H12.05C.27,22.64.86,22.57.3,23.79,0,24.41,0,24.94,0,32c0,8.4,0,8.24,1.09,9l.54.36H22.51l0,10.54c.05,10.35.05,10.54.39,11a3.91,3.91,0,0,0,.76.76c.42.34.6.34,8.15.34C40.3,64,40.3,64,41,63l.35-.49L41.4,52l.08-10.55L52,41.35c11.74-.09,11.08,0,11.69-1.15.27-.46.29-1.15.29-8.2s0-7.75-.29-8.21c-.61-1.12,0-1.06-11.69-1.15l-10.54-.08L41.4,12C41.3.27,41.37.94,40.24.32,39.78.07,39.08,0,32.2,0,28.06,0,24.46,0,24.2.11Z"/></g></g></svg>